# xmcd
#
# Track frame offsets: 
#        150
#        15502
#        27192
#        42197
#        57662
#        74365
#        90320
#        112147
#        127675
#        143065
#        162155
#        179165
#        195930
#        211665
#        228770
#        242365
#        252395
#
# Disc length: 3798 seconds
#
# Revision: 3
# Processed by: cddbd v1.5.2PL0 Copyright (c) Steve Scherf et al.
# Submitted via: ExactAudioCopy v0.99pb4
#
DISCID=da0ed411
DTITLE=Uncle Tupelo - Anodyne [Columbia Reissue]
DYEAR=1993
DGENRE=Alt. Rock
TTITLE0=Slate
TTITLE1=Acuff-Rose
TTITLE2=The Long Cut
TTITLE3=Give Back the Key to My Heart
TTITLE4=Chickamauga
TTITLE5=New Madrid
TTITLE6=Anodyne
TTITLE7=We've Been Had
TTITLE8=Fifteen Keys
TTITLE9=High Water
TTITLE10=No Sense in Lovin'
TTITLE11=Steal the Crumbs
TTITLE12=Stay True
TTITLE13=Wherever
TTITLE14=Are You Sure Hank Done It This Way?
TTITLE15=Truck Drivin' Man [Live]
TTITLE16=Suzy Q [Live]
EXTD=
EXTT0=
EXTT1=
EXTT2=
EXTT3=
EXTT4=
EXTT5=
EXTT6=
EXTT7=
EXTT8=
EXTT9=
EXTT10=
EXTT11=
EXTT12=
EXTT13=
EXTT14=
EXTT15=
EXTT16=
PLAYORDER=
